g C
v 2.5083313 1.0566608 -1.5177933
v 1.0990531 1.0566593 2.2122123
v 1.4714509 1.0566608 -1.5691084
v 2.5083315 1.0566593 2.2819579
v 1.0921143 1.0273701 2.2826674
v 2.507369 1.0273701 2.3527086
v 2.5721343 1.0206064 2.348998
v 2.579042 1.0273701 2.2844942
v 2.5790167 1.0273715 -1.514357
v 2.5083313 1.0566608 -1.5177933
v 2.5660918 1.0143961 -1.5727675
v 2.5083923 1.0273715 -1.5885627
v 1.4714509 1.0566608 -1.5691084
v 2.5083313 1.0566608 -1.5177933
v 1.4783894 1.0273715 -1.6395632
v -0.4096529 1.0273701 2.0594652
v 1.0990531 1.0566593 2.2122123
v -0.39584178 1.0566593 1.9900314
v -1.8825207 1.0273702 1.6909732
v 1.4714509 1.0566608 -1.5691084
v -1.8619692 1.0566595 1.6232263
v 0.34540507 1.0566608 -1.7364683
v 0.35921627 1.0273715 -1.805902
v -0.7589712 1.0566609 -2.0127695
v -0.7384198 1.0273716 -2.0805166
v -1.7365615 1.0566609 -2.3621552
v -1.7104913 1.0273716 -2.4279299
v -1.7724556 1.0206081 -2.4430926
v -3.1906633 1.0566595 1.1483573
v -1.8619692 1.0566595 1.6232263
v -1.802813 1.0273716 -2.386986
v -3.2573311 1.0273702 1.1245965
v -1.830796 0.956661 -2.3959656
v -1.802813 1.0273716 -2.386986
v -1.7761558 0.9566609 -2.4514368
v -3.2573311 1.0273702 1.1245965
v -1.830796 8.433477E-07 -2.3959658
v -1.7761558 8.692439E-07 -2.451437
v -3.2849932 0.95665944 1.114776
v -3.2849932 -6.3461533E-07 1.1147759
v -3.284472 -6.6372326E-07 1.1899612
v -3.284506 0.9566595 1.1899766
v -3.2672536 1.0143946 1.1823249
v -3.1906633 1.0566595 1.1483573
v -3.2178051 1.0273702 1.213722
v -1.8619692 1.0566595 1.6232263
v -1.8825207 1.0273702 1.6909732
v -3.284506 0.9566595 1.1899766
v -3.2290947 -6.7899214E-07 1.2408185
v -3.284472 -6.6372326E-07 1.1899612
v -3.2290947 0.95665944 1.2408186
v -3.2672536 1.0143946 1.1823249
v -3.2178051 1.0273702 1.213722
v -1.8825207 1.0273702 1.6909732
v -1.8910334 0.9566594 1.7190353
v -1.8910334 -7.5690355E-07 1.7190351
v -0.4096529 1.0273701 2.0594652
v -0.4153738 0.9566593 2.0882256
v -0.4153738 -8.1705224E-07 2.0882254
v 1.0921143 1.0273701 2.2826674
v 1.0892404 0.9566593 2.3118508
v 1.0892404 -8.534854E-07 2.3118505
v 2.507369 1.0273701 2.3527086
v 2.5084536 0.9566592 2.382088
v 2.5084536 -8.649285E-07 2.3820877
v 2.579078 -8.53743E-07 2.3562937
v 2.5721343 1.0206064 2.348998
v 2.579078 0.9566593 2.356294
v 2.6083312 -8.255999E-07 2.2870307
v 2.6083312 0.9566593 2.287031
v 2.579042 1.0273701 2.2844942
v 2.5790167 1.0273715 -1.514357
v 2.6083312 0.9566608 -1.5129683
v 2.6083312 6.994891E-07 -1.5129684
v 2.5790777 7.2810406E-07 -1.5851269
v 2.5660918 1.0143961 -1.5727675
v 2.579103 0.956661 -1.5851511
v 2.5084534 7.4042833E-07 -1.6179113
v 2.5084534 0.9566608 -1.6179112
v 2.5083923 1.0273715 -1.5885627
v 1.4783894 1.0273715 -1.6395632
v 1.4812635 0.9566608 -1.6687467
v 1.4812635 7.487105E-07 -1.668747
v 0.35921627 1.0273715 -1.805902
v 0.364937 0.9566608 -1.8346623
v 0.364937 7.7574157E-07 -1.8346624
v -0.7384198 1.0273716 -2.0805166
v -0.72990704 0.9566609 -2.1085784
v -0.72990704 8.203682E-07 -2.1085787
v -1.7104913 1.0273716 -2.4279299
v -1.6983612 0.956661 -2.4546988
v -1.6983612 8.767584E-07 -2.454699
v -1.7724556 1.0206081 -2.4430926
v -1.7761558 8.692439E-07 -2.451437
v -1.7761558 0.9566609 -2.4514368
vt 0.74865204 1
vt 0.7343751 1.0000001
vt 0.73437506 1.0000001
vt 0.7489455 1.0000001
vt 0.7343898 1.0000001
vt 0.7489467 1.0000001
vt 0.74960935 1.0000001
vt 0.7500001 1.0000001
vt 0.7500001 1.0000001
vt 0.74865204 1
vt 0.7500001 1.0000001
vt 0.74863476 1.0000001
vt 0.73437506 1.0000001
vt 0.74865204 1
vt 0.7343751 1.0000001
vt 0.71876484 1.0000001
vt 0.7343751 1.0000001
vt 0.7187501 1.0000001
vt 0.7031399 1.0000001
vt 0.7343751 1.0000001
vt 0.70312506 1.0000001
vt 0.7187501 1.0000001
vt 0.7187501 1.0000001
vt 0.70312506 1.0000001
vt 0.70312506 1.0000001
vt 0.6888481 1.0000001
vt 0.6888513 1.0000001
vt 0.68750006 1.0000001
vt 0.68855476 1.0000002
vt 0.7031251 1.0000001
vt 0.68750006 1.0000001
vt 0.68750006 1.0000001
vt 0.68750006 1.0000002
vt 0.68750006 1.0000001
vt 0.68750006 1.0000001
vt 0.68750006 1.0000001
vt 0.68750006 1.0000001
vt 0.68750006 1.0000001
vt 0.68750006 1.0000001
vt 0.68750006 1.0000001
vt 0.68750006 1.0000001
vt 0.68750006 1.0000001
vt 0.68750006 1.0000001
vt 0.68855476 1.0000002
vt 0.68854284 1.0000001
vt 0.7031251 1.0000001
vt 0.7031104 1.0000001
vt 0 0
vt 0 0
vt 0 0
vt 0 0
vt 0 0
vt 0 0
vt 0 0
vt 0 0
vt 0 0
vt 0 0
vt 0 0
vt 0 0
vt 0 0
vt 0 0
vt 0 0
vt 0 0
vt 0 0
vt 0 0
vt 0 0
vt 0 0
vt 0 0
vt 0 0
vt 0 0
vt 0 0
vt 0 0
vt 0 0
vt 0 0
vt 0 0
vt 0 0
vt 0 0
vt 0 0
vt 0 0
vt 0 0
vt 0 0
vt 0 0
vt 0 0
vt 0 0
vt 0 0
vt 0 0
vt 0 0
vt 0 0
vt 0 0
vt 0 0
vt 0 0
vt 0 0
vt 0 0
vt 0 0
vt 0 0
vn 0.18700007 0.96610403 -0.17797169
vn -0.019740747 0.9796483 0.19974849
vn 0.01858768 0.98197144 -0.18811285
vn 0.15714298 0.9736788 0.16509321
vn -0.07008499 0.7014832 0.70923156
vn 0.11034637 0.70345455 0.7021221
vn 0.5604587 0.58232665 0.5888818
vn 0.69579643 0.7034684 0.14491262
vn 0.70026225 0.69362956 -0.16885152
vn 0.18700007 0.96610403 -0.17797169
vn 0.5933901 0.57353735 -0.56475055
vn 0.20326069 0.6936354 -0.69105357
vn 0.01858768 0.98197144 -0.18811285
vn 0.18700007 0.96610403 -0.17797169
vn 0.06891184 0.7134438 -0.69731563
vn -0.13903426 0.70150596 0.69896996
vn -0.019740747 0.9796483 0.19974849
vn -0.039154265 0.97965324 0.1968414
vn -0.20665939 0.7015 0.6820481
vn 0.01858768 0.98197144 -0.18811285
vn -0.058208548 0.979645 0.19211283
vn 0.03688155 0.98196787 -0.18541488
vn 0.13671322 0.7133929 -0.6872991
vn 0.054811098 0.9819744 -0.18089224
vn 0.2031934 0.71342987 -0.67061937
vn -0.0949428 0.9721972 -0.21405287
vn 0.10255679 0.69633496 -0.7103518
vn -0.3322586 0.5729886 -0.7491917
vn -0.22744365 0.9685532 0.10086682
vn -0.058208548 0.979645 0.19211283
vn -0.59534514 0.69634885 -0.40082705
vn -0.7067615 0.69996303 -0.10266444
vn -0.838505 0.16274075 -0.5200239
vn -0.59534514 0.69634885 -0.40082705
vn -0.40144143 0.1395353 -0.90519315
vn -0.7067615 0.69996303 -0.10266444
vn -0.83355945 0 -0.55242974
vn -0.4054078 2.1503033E-07 -0.914136
vn -0.9628742 0.1805377 -0.20069736
vn -0.9814336 -9.084162E-06 -0.19180278
vn -0.91413605 -1.9631769E-05 0.40540752
vn -0.89980483 0.17637306 0.3990536
vn -0.7432549 0.58216834 0.32962435
vn -0.22744365 0.9685532 0.10086682
vn -0.3983465 0.69996727 0.5927613
vn -0.058208548 0.979645 0.19211283
vn -0.20665939 0.7015 0.6820481
vn -0.89980483 0.17637306 0.3990536
vn -0.5166624 -9.335861E-06 0.85618913
vn -0.91413605 -1.9631769E-05 0.40540752
vn -0.49761063 0.18054122 0.8484036
vn -0.7432549 0.58216834 0.32962435
vn -0.3983465 0.69996727 0.5927613
vn -0.20665939 0.7015 0.6820481
vn -0.28445894 0.19417982 0.9388169
vn -0.28997526 -2.5183485E-07 0.9570341
vn -0.13903426 0.70150596 0.69896996
vn -0.1913791 0.19414291 0.962124
vn -0.195091 -3.2806523E-07 0.98078513
vn -0.07008499 0.7014832 0.70923156
vn -0.096465945 0.19414124 0.976219
vn -0.09833883 -3.3963528E-07 0.99515307
vn 0.11034637 0.70345455 0.7021221
vn 0.1189054 0.16445306 0.9791919
vn 0.14979786 -2.8463586E-07 0.9887166
vn 0.68941075 -1.12968294E-07 0.7243706
vn 0.5604587 0.58232665 0.5888818
vn 0.68173456 0.14880502 0.7163065
vn 0.98010397 0 0.19848473
vn 0.9721115 0.16448784 0.16716157
vn 0.69579643 0.7034684 0.14491262
vn 0.70026225 0.69362956 -0.16885152
vn 0.96820515 0.17860232 -0.17515723
vn 0.9815338 -8.6102855E-06 -0.19128893
vn 0.7243709 -1.8181296E-05 -0.6894105
vn 0.5933901 0.57353735 -0.56475055
vn 0.71387714 0.1695963 -0.6794237
vn 0.2395702 -8.559189E-06 -0.97087896
vn 0.22280088 0.17860696 -0.9583629
vn 0.20326069 0.6936354 -0.69105357
vn 0.06891184 0.7134438 -0.69731563
vn 0.09642681 0.19651563 -0.97574764
vn 0.09833875 1.1592706E-07 -0.99515307
vn 0.13671322 0.7133929 -0.6872991
vn 0.19128928 0.19646606 -0.9616701
vn 0.19509138 2.7635926E-07 -0.98078513
vn 0.2031934 0.71342987 -0.67061937
vn 0.28432158 0.19647707 -0.93838054
vn 0.28997537 3.4239903E-07 -0.9570341
vn 0.10255679 0.69633496 -0.7103518
vn 0.17744263 0.16270383 -0.97058827
vn 0.15010075 3.272594E-07 -0.9886707
vn -0.3322586 0.5729886 -0.7491917
vn -0.4054078 2.1503033E-07 -0.914136
vn -0.40144143 0.1395353 -0.90519315
g C_0
f 3/3/3 2/2/2 1/1/1
f 2/2/2 4/4/4 1/1/1
f 4/4/4 2/2/2 5/5/5
f 6/6/6 4/4/4 5/5/5
f 6/6/6 7/7/7 4/4/4
f 7/7/7 8/8/8 4/4/4
f 4/4/4 8/8/8 1/1/1
f 8/8/8 9/9/9 1/1/1
f 9/9/9 11/11/11 10/10/10
f 11/11/11 12/12/12 10/10/10
f 14/14/14 12/12/12 13/13/13
f 12/12/12 15/15/15 13/13/13
f 5/5/5 17/17/17 16/16/16
f 17/17/17 18/18/18 16/16/16
f 16/16/16 18/18/18 19/19/19
f 18/18/18 17/17/17 20/20/20
f 18/18/18 21/21/21 19/19/19
f 20/20/20 15/15/15 22/22/22
f 22/22/22 18/18/18 20/20/20
f 21/21/21 18/18/18 22/22/22
f 15/15/15 23/23/23 22/22/22
f 24/24/24 21/21/21 22/22/22
f 22/22/22 23/23/23 24/24/24
f 23/23/23 25/25/25 24/24/24
f 24/24/24 25/25/25 26/26/26
f 25/25/25 27/27/27 26/26/26
f 27/27/27 28/28/28 26/26/26
f 26/26/26 29/29/29 24/24/24
f 29/29/29 30/30/30 24/24/24
f 29/29/29 26/26/26 31/31/31
f 28/28/28 31/31/31 26/26/26
f 32/32/32 29/29/29 31/31/31
f 34/34/34 28/28/28 33/33/33
f 28/28/28 35/35/35 33/33/33
f 36/36/36 34/34/34 33/33/33
f 33/33/33 35/35/35 37/37/37
f 35/35/35 38/38/38 37/37/37
f 39/39/39 33/33/33 37/37/37
f 39/39/39 36/36/36 33/33/33
f 40/40/40 39/39/39 37/37/37
f 40/40/40 41/41/41 39/39/39
f 41/41/41 42/42/42 39/39/39
f 42/42/42 43/43/43 39/39/39
f 43/43/43 36/36/36 39/39/39
f 36/36/36 43/43/43 44/44/44
f 43/43/43 45/45/45 44/44/44
f 46/46/46 44/44/44 45/45/45
f 47/47/47 46/46/46 45/45/45
f 50/50/50 49/49/49 48/48/48
f 49/49/49 51/51/51 48/48/48
f 52/52/52 48/48/48 51/51/51
f 53/53/53 52/52/52 51/51/51
f 54/54/54 53/53/53 51/51/51
f 55/55/55 51/51/51 49/49/49
f 55/55/55 54/54/54 51/51/51
f 56/56/56 55/55/55 49/49/49
f 57/57/57 54/54/54 55/55/55
f 58/58/58 55/55/55 56/56/56
f 58/58/58 57/57/57 55/55/55
f 59/59/59 58/58/58 56/56/56
f 60/60/60 57/57/57 58/58/58
f 61/61/61 58/58/58 59/59/59
f 61/61/61 60/60/60 58/58/58
f 62/62/62 61/61/61 59/59/59
f 63/63/63 60/60/60 61/61/61
f 64/64/64 61/61/61 62/62/62
f 64/64/64 63/63/63 61/61/61
f 65/65/65 64/64/64 62/62/62
f 64/64/64 65/65/65 66/66/66
f 67/67/67 63/63/63 64/64/64
f 68/68/68 64/64/64 66/66/66
f 68/68/68 67/67/67 64/64/64
f 68/68/68 66/66/66 69/69/69
f 67/67/67 68/68/68 70/70/70
f 70/70/70 68/68/68 69/69/69
f 71/71/71 67/67/67 70/70/70
f 71/71/71 70/70/70 72/72/72
f 73/73/73 70/70/70 69/69/69
f 70/70/70 73/73/73 72/72/72
f 74/74/74 73/73/73 69/69/69
f 73/73/73 74/74/74 75/75/75
f 76/76/76 72/72/72 73/73/73
f 77/77/77 73/73/73 75/75/75
f 77/77/77 76/76/76 73/73/73
f 77/77/77 75/75/75 78/78/78
f 76/76/76 77/77/77 79/79/79
f 79/79/79 77/77/77 78/78/78
f 80/80/80 76/76/76 79/79/79
f 80/80/80 79/79/79 81/81/81
f 82/82/82 79/79/79 78/78/78
f 79/79/79 82/82/82 81/81/81
f 83/83/83 82/82/82 78/78/78
f 81/81/81 82/82/82 84/84/84
f 85/85/85 82/82/82 83/83/83
f 82/82/82 85/85/85 84/84/84
f 86/86/86 85/85/85 83/83/83
f 84/84/84 85/85/85 87/87/87
f 88/88/88 85/85/85 86/86/86
f 85/85/85 88/88/88 87/87/87
f 89/89/89 88/88/88 86/86/86
f 87/87/87 88/88/88 90/90/90
f 91/91/91 88/88/88 89/89/89
f 88/88/88 91/91/91 90/90/90
f 92/92/92 91/91/91 89/89/89
f 93/93/93 90/90/90 91/91/91
f 91/91/91 92/92/92 94/94/94
f 95/95/95 93/93/93 91/91/91
f 95/95/95 91/91/91 94/94/94
