g Colayder_C.001
v -0.729907 1.2590584E-06 -2.108579
v -1.7925279 1.3209316E-06 -2.488354
v -3.323261 -1.9667192E-07 1.2071636
v -0.72990704 1.0566609 -2.1085784
v -1.7925279 1.0566609 -2.4883533
v -3.323261 1.0566595 1.2071639
v -1.8910334 -2.8006633E-07 1.7190347
v -1.8910334 1.0566595 1.7190353
v 0.364937 1.0566609 -1.8346623
v 0.3649371 1.2144317E-06 -1.8346628
v -0.4153737 -3.4021505E-07 2.0882251
v -0.4153738 1.0566593 2.0882256
v 1.4812635 1.0566608 -1.6687467
v 1.4812635 1.1874007E-06 -1.6687472
v 1.0892404 -3.766482E-07 2.3118503
v 1.0892404 1.0566593 2.3118508
v 2.6083312 1.0566608 -1.6129682
v 2.6083312 1.1783133E-06 -1.6129687
v 2.6083312 1.0566593 2.3870308
v 2.6083312 -3.888966E-07 2.3870304
vt 0.70312506 1.0000001
vt 0.68750006 1.0000001
vt 0.68750006 1.0000001
vt 0.70312506 1.0000001
vt 0.68750006 1.0000001
vt 0.68750006 1.0000001
vt 0.70312506 1.0000001
vt 0.70312506 1.0000001
vt 0.7187501 1.0000001
vt 0.7187501 1.0000001
vt 0.7187501 1.0000001
vt 0.7187501 1.0000001
vt 0.7343751 1.0000001
vt 0.7343751 1.0000001
vt 0.7343751 1.0000001
vt 0.7343751 1.0000001
vt 0.7500001 1.0000001
vt 0.7500001 1.0000001
vt 0.7500001 1.0000001
vt 0.7500001 1.0000001
vn 0.2017427 -0.7183097 -0.66583115
vn -0.33025327 -0.5799951 -0.7446734
vn -0.74803555 -0.5747945 0.3317441
vn 0.20174253 0.7183103 -0.66583043
vn -0.33025333 0.5799957 -0.74467295
vn -0.74803555 0.5747942 0.33174455
vn -0.20814778 -0.69623685 0.6869707
vn -0.20814787 0.6962364 0.68697125
vn 0.13574086 0.7182543 -0.6824113
vn 0.13574095 -0.7182537 -0.682412
vn -0.14002872 -0.6962898 0.7039691
vn -0.14002876 0.6962892 0.70396966
vn 0.068416506 0.7183108 -0.6923502
vn 0.068416506 -0.71831024 -0.69235075
vn -0.07058883 -0.69623655 0.7143332
vn -0.07058884 0.696236 0.7143337
vn 0.5900878 0.57999545 -0.5616064
vn 0.5900878 -0.57999504 -0.5616068
vn 0.56414217 0.5747942 0.5927523
vn 0.56414217 -0.5747947 0.5927518
g Colayder_C.001_0
f 3/3/3 2/2/2 1/1/1
f 1/1/1 2/2/2 4/4/4
f 2/2/2 3/3/3 5/5/5
f 2/2/2 5/5/5 4/4/4
f 3/3/3 6/6/6 5/5/5
f 5/5/5 6/6/6 4/4/4
f 3/3/3 7/7/7 6/6/6
f 7/7/7 3/3/3 1/1/1
f 6/6/6 8/8/8 4/4/4
f 7/7/7 8/8/8 6/6/6
f 1/1/1 4/4/4 9/9/9
f 4/4/4 8/8/8 9/9/9
f 7/7/7 1/1/1 10/10/10
f 10/10/10 1/1/1 9/9/9
f 7/7/7 11/11/11 8/8/8
f 11/11/11 7/7/7 10/10/10
f 8/8/8 12/12/12 9/9/9
f 11/11/11 12/12/12 8/8/8
f 10/10/10 9/9/9 13/13/13
f 9/9/9 12/12/12 13/13/13
f 11/11/11 10/10/10 14/14/14
f 14/14/14 10/10/10 13/13/13
f 11/11/11 15/15/15 12/12/12
f 15/15/15 11/11/11 14/14/14
f 12/12/12 16/16/16 13/13/13
f 15/15/15 16/16/16 12/12/12
f 14/14/14 13/13/13 17/17/17
f 13/13/13 16/16/16 17/17/17
f 15/15/15 14/14/14 18/18/18
f 18/18/18 14/14/14 17/17/17
f 16/16/16 19/19/19 17/17/17
f 18/18/18 17/17/17 19/19/19
f 20/20/20 15/15/15 18/18/18
f 15/15/15 20/20/20 16/16/16
f 20/20/20 19/19/19 16/16/16
f 20/20/20 18/18/18 19/19/19
