g Colayder_E b
v 0.6487412 1.0566602 -2.1387901
v -2.9647233 1.0566602 1.4628506
v -1.199295 1.0566602 -2.7992706
v -0.6904106 1.0566602 2.2756805
v 2.5528178 1.0566602 -1.6624163
v 1.6528683 1.0566602 2.8619366
v 0.6487412 1.0566602 -2.1387901
v -1.199295 1.0566602 -2.7992706
v -1.199295 0 -2.7992706
v 0.6487412 0 -2.1387901
v 2.5528178 1.0566602 -1.6624163
v 2.5528178 0 -1.6624163
v -2.9647233 1.0566602 1.4628506
v -0.6904106 0 2.2756805
v -2.9647233 0 1.4628506
v -0.6904106 1.0566602 2.2756805
v 1.6528683 0 2.8619366
v 1.6528683 1.0566602 2.8619366
v -1.199295 1.0566602 -2.7992706
v -2.9647233 1.0566602 1.4628506
v -2.9647233 0 1.4628506
v -1.199295 0 -2.7992706
v 2.5528178 1.0566602 -1.6624163
v 2.5528178 0 -1.6624163
v 1.6528683 0 2.8619366
v 1.6528683 1.0566602 2.8619366
vt 0 0
vt 0 0
vt 0 0
vt 0 0
vt 0 0
vt 0 0
vt 0 0
vt 0 0
vt 0 0
vt 0 0
vt 0 0
vt 0 0
vt 0 0
vt 0 0
vt 0 0
vt 0 0
vt 0 0
vt 0 0
vt 0 0
vt 0 0
vt 0 0
vt 0 0
vt 0 0
vt 0 0
vt 0 0
vt 0 0
vn -0 1 0
vn -0 1 0
vn -0 1 0
vn -0 1 0
vn -0 1 0
vn -0 1 0
vn 0.28997537 0 -0.9570341
vn 0.33654767 0 -0.94166636
vn 0.33654767 0 -0.94166636
vn 0.28997537 0 -0.9570341
vn 0.24270563 0 -0.9701
vn 0.24270563 0 -0.9701
vn -0.3365476 0 0.94166636
vn -0.28997532 0 0.9570341
vn -0.3365476 0 0.94166636
vn -0.28997532 0 0.9570341
vn -0.24270563 0 0.9701
vn -0.24270563 0 0.9701
vn -0.9238795 0 -0.38268346
vn -0.9238795 0 -0.38268346
vn -0.9238795 0 -0.38268346
vn -0.9238795 0 -0.38268346
vn 0.98078525 0 0.19509026
vn 0.98078525 0 0.19509026
vn 0.98078525 0 0.19509026
vn 0.98078525 0 0.19509026
g Colayder_E b_0
f 3/3/3 2/2/2 1/1/1
f 2/2/2 4/4/4 1/1/1
f 1/1/1 4/4/4 5/5/5
f 4/4/4 6/6/6 5/5/5
f 9/9/9 8/8/8 7/7/7
f 10/10/10 9/9/9 7/7/7
f 10/10/10 7/7/7 11/11/11
f 12/12/12 10/10/10 11/11/11
f 15/15/15 14/14/14 13/13/13
f 14/14/14 16/16/16 13/13/13
f 14/14/14 17/17/17 16/16/16
f 17/17/17 18/18/18 16/16/16
f 21/21/21 20/20/20 19/19/19
f 22/22/22 21/21/21 19/19/19
f 25/25/25 24/24/24 23/23/23
f 26/26/26 25/25/25 23/23/23
