g Colayder_A.001
v 1.2558627 -4.5859096E-08 1.6863476
v 0.765834 4.4685393E-07 -1.3379033
v 0.47181568 -3.953734E-08 1.6475451
v 1.2558633 4.429028E-07 -1.3136516
v 1.2558627 1.0566599 1.6863476
v 1.2558633 1.0566604 -1.3136516
v 0.47181568 1.0566599 1.6475451
v 0.47181568 -3.953734E-08 1.6475451
v 0.765834 1.0566604 -1.3379033
v 0.765834 4.4685393E-07 -1.3379033
v 1.2558633 4.429028E-07 -1.3136516
v -0.30475914 1.0566599 1.5321255
v -0.30475914 -2.0733138E-08 1.5321257
v 0.2804746 1.0566604 -1.4100407
v 0.765834 1.0566604 -1.3379033
v 0.2804746 4.5860662E-07 -1.4100407
v 0.765834 4.4685393E-07 -1.3379033
v -1.0663898 1.0566599 1.3415759
v 0.2804746 1.0566604 -1.4100407
v -0.19554467 1.0566604 -1.529134
v -0.19554467 4.780094E-07 -1.529134
v 0.2804746 4.5860662E-07 -1.4100407
v -1.0663898 1.0311353E-08 1.3415761
v -1.8056041 1.05666 1.0773844
v -0.19554467 1.0566604 -1.529134
v -1.8056041 5.335363E-08 1.0773844
v -0.19554467 4.780094E-07 -1.529134
v -0.6575535 1.0566604 -1.6942538
v -0.6575535 5.049108E-07 -1.6942538
v 0.47181568 -3.953734E-08 1.6475451
v 0.765834 4.4685393E-07 -1.3379033
v 0.2804746 4.5860662E-07 -1.4100407
v -0.30475914 -2.0733138E-08 1.5321257
vt 0.7500001 1.0000001
vt 0.73437506 1
vt 0.7343751 1.0000001
vt 0.74630696 1.0000001
vt 0.7500001 1.0000001
vt 0.74630696 1.0000001
vt 0.7343751 1.0000001
vt 0.7343751 1.0000001
vt 0.73437506 1
vt 0.73437506 1
vt 0.74630696 1.0000001
vt 0.7187501 1.0000001
vt 0.7187501 1.0000001
vt 0.72060215 1.0000001
vt 0.731097 1
vt 0.72060215 1.0000001
vt 0.731097 1
vt 0.70312506 1.0000001
vt 0.71658707 1.0000001
vt 0.707084 1.0000001
vt 0.707084 1.0000001
vt 0.71658707 1.0000001
vt 0.70312506 1.0000001
vt 0.68750006 1.0000001
vt 0.7020929 1.0000001
vt 0.68750006 1.0000001
vt 0.7020929 1.0000001
vt 0.69325185 1.0000001
vt 0.69325185 1.0000001
vt 0.7343751 1.0000001
vt 0.731097 1
vt 0.72060215 1.0000001
vt 0.7187501 1.0000001
vn 0.56414205 -0.57479453 0.59275216
vn 0.0684168 -0.71831053 -0.69235045
vn -0.070588864 -0.6962363 0.7143334
vn 0.59008795 -0.5799953 -0.56160647
vn 0.56414205 0.5747944 0.5927523
vn 0.5900879 0.57999533 -0.5616063
vn -0.07058886 0.6962362 0.7143335
vn -0.070588864 -0.6962363 0.7143334
vn 0.068416804 0.7183106 -0.69235027
vn 0.0684168 -0.71831053 -0.69235045
vn 0.59008795 -0.5799953 -0.56160647
vn -0.14002867 0.6962894 0.70396936
vn -0.14002866 -0.69628966 0.7039693
vn 0.13574061 0.7182538 -0.6824119
vn 0.068416804 0.7183106 -0.69235027
vn 0.13574065 -0.71825373 -0.68241197
vn 0.0684168 -0.71831053 -0.69235045
vn -0.20814776 0.6962366 0.686971
vn 0.13574061 0.7182538 -0.6824119
vn 0.20174219 0.7183103 -0.6658305
vn 0.20174223 -0.7183102 -0.66583073
vn 0.13574065 -0.71825373 -0.68241197
vn -0.20814781 -0.6962365 0.68697107
vn -0.74803555 0.5747944 0.3317442
vn 0.20174219 0.7183103 -0.6658305
vn -0.7480356 -0.5747943 0.33174422
vn 0.20174223 -0.7183102 -0.66583073
vn -0.330253 0.57999533 -0.74467325
vn -0.33025315 -0.5799953 -0.7446733
vn -0.070588864 -0.6962363 0.7143334
vn 0.0684168 -0.71831053 -0.69235045
vn 0.13574065 -0.71825373 -0.68241197
vn -0.14002866 -0.69628966 0.7039693
g Colayder_A.001_0
f 3/3/3 2/2/2 1/1/1
f 2/2/2 4/4/4 1/1/1
f 1/1/1 4/4/4 5/5/5
f 4/4/4 6/6/6 5/5/5
f 1/1/1 5/5/5 7/7/7
f 8/8/8 1/1/1 7/7/7
f 6/6/6 9/9/9 5/5/5
f 9/9/9 7/7/7 5/5/5
f 10/10/10 9/9/9 6/6/6
f 11/11/11 10/10/10 6/6/6
f 8/8/8 7/7/7 12/12/12
f 13/13/13 8/8/8 12/12/12
f 14/14/14 12/12/12 7/7/7
f 15/15/15 14/14/14 7/7/7
f 16/16/16 14/14/14 15/15/15
f 17/17/17 16/16/16 15/15/15
f 13/13/13 12/12/12 18/18/18
f 12/12/12 19/19/19 18/18/18
f 19/19/19 20/20/20 18/18/18
f 21/21/21 20/20/20 19/19/19
f 22/22/22 21/21/21 19/19/19
f 21/21/21 22/22/22 23/23/23
f 22/22/22 13/13/13 23/23/23
f 23/23/23 13/13/13 18/18/18
f 23/23/23 18/18/18 24/24/24
f 18/18/18 25/25/25 24/24/24
f 26/26/26 23/23/23 24/24/24
f 27/27/27 23/23/23 26/26/26
f 25/25/25 28/28/28 24/24/24
f 26/26/26 24/24/24 28/28/28
f 29/29/29 27/27/27 26/26/26
f 27/27/27 29/29/29 25/25/25
f 29/29/29 28/28/28 25/25/25
f 29/29/29 26/26/26 28/28/28
f 32/32/32 31/31/31 30/30/30
f 33/33/33 32/32/32 30/30/30
