g Colayder_B.001
v 1.8837947 1.1550985E-06 -1.4704777
v 0.7567273 -3.2156356E-07 1.9737431
v 1.8837948 -3.30651E-07 2.0295217
v 1.8837948 1.0566593 2.0295222
v 0.7567272 1.0566593 1.9737436
v 1.8837947 1.0566608 -1.4704775
v 1.0997475 1.1614203E-06 -1.5092806
v 1.0997475 1.0566608 -1.5092801
v -0.3595993 1.0566595 1.8078278
v -0.3595993 -2.945325E-07 1.8078276
v 0.32317284 1.1802244E-06 -1.6246989
v 0.32317275 1.0566608 -1.6246984
v -1.4544435 1.0566595 1.5339128
v -1.4544435 -2.4990604E-07 1.5339123
v -0.4384579 1.2112688E-06 -1.8152483
v -0.43845794 1.0566608 -1.8152478
v -2.5170643 1.0566595 1.1541368
v -2.5170643 -1.8803266E-07 1.1541363
v -1.1776724 1.0566609 -2.0794399
v -1.1776723 1.2543112E-06 -2.0794404
vt 0.7500001 1.0000001
vt 0.7343751 1.0000001
vt 0.7500001 1.0000001
vt 0.7500001 1.0000001
vt 0.7343751 1.0000001
vt 0.7500001 1.0000001
vt 0.7343751 1.0000001
vt 0.7343751 1.0000001
vt 0.7187501 1.0000001
vt 0.7187501 1.0000001
vt 0.7187501 1.0000001
vt 0.7187501 1.0000001
vt 0.70312506 1.0000001
vt 0.70312506 1.0000001
vt 0.70312506 1.0000001
vt 0.70312506 1.0000001
vt 0.68750006 1.0000001
vt 0.68750006 1.0000001
vt 0.68750006 1.0000001
vt 0.68750006 1.0000001
vn 0.59008783 -0.579995 -0.5616067
vn -0.07058881 -0.6962365 0.7143332
vn 0.56414217 -0.57479465 0.59275174
vn 0.56414217 0.5747943 0.5927523
vn -0.07058879 0.696236 0.7143338
vn 0.59008783 0.57999545 -0.5616063
vn 0.06841614 -0.71831 -0.69235104
vn 0.06841617 0.7183106 -0.6923504
vn -0.1400287 0.6962893 0.70396966
vn -0.14002869 -0.6962898 0.7039691
vn 0.13573998 -0.71825373 -0.68241215
vn 0.13573995 0.7182542 -0.68241155
vn -0.20814799 0.69623625 0.6869712
vn -0.20814788 -0.6962369 0.6869707
vn 0.20174247 -0.71831 -0.6658309
vn 0.20174234 0.7183106 -0.6658302
vn -0.74803567 0.5747942 0.33174434
vn -0.74803567 -0.57479453 0.33174387
vn -0.33025295 0.57999575 -0.7446731
vn -0.33025283 -0.57999504 -0.7446737
g Colayder_B.001_0
f 3/3/3 2/2/2 1/1/1
f 3/3/3 1/1/1 4/4/4
f 3/3/3 4/4/4 5/5/5
f 2/2/2 3/3/3 5/5/5
f 1/1/1 6/6/6 4/4/4
f 5/5/5 4/4/4 6/6/6
f 1/1/1 7/7/7 6/6/6
f 2/2/2 7/7/7 1/1/1
f 8/8/8 5/5/5 6/6/6
f 7/7/7 8/8/8 6/6/6
f 2/2/2 5/5/5 9/9/9
f 9/9/9 5/5/5 8/8/8
f 2/2/2 10/10/10 7/7/7
f 10/10/10 2/2/2 9/9/9
f 7/7/7 11/11/11 8/8/8
f 10/10/10 11/11/11 7/7/7
f 12/12/12 9/9/9 8/8/8
f 11/11/11 12/12/12 8/8/8
f 10/10/10 9/9/9 13/13/13
f 13/13/13 9/9/9 12/12/12
f 10/10/10 14/14/14 11/11/11
f 14/14/14 10/10/10 13/13/13
f 11/11/11 15/15/15 12/12/12
f 14/14/14 15/15/15 11/11/11
f 16/16/16 13/13/13 12/12/12
f 15/15/15 16/16/16 12/12/12
f 14/14/14 13/13/13 17/17/17
f 17/17/17 13/13/13 16/16/16
f 14/14/14 18/18/18 15/15/15
f 18/18/18 14/14/14 17/17/17
f 19/19/19 17/17/17 16/16/16
f 18/18/18 17/17/17 19/19/19
f 18/18/18 20/20/20 15/15/15
f 15/15/15 20/20/20 16/16/16
f 20/20/20 19/19/19 16/16/16
f 20/20/20 18/18/18 19/19/19
