g D a
v -1.2101272 1.0566605 -2.2931352
v -1.2799441 1.0273713 -2.304593
v -1.2562139 1.0143969 -2.3585918
v -1.1973757 1.0273715 -2.3627257
v 0.21211353 1.0273713 -2.1532393
v 0.20517488 1.0566605 -2.0827842
v 1.6341397 1.0273713 -2.082838
v 1.6340786 1.0566605 -2.0120685
v 1.6918395 1.0143957 -2.0670426
v 1.7047639 1.0273713 -2.0086322
v 1.7047895 1.0273705 2.290221
v 1.6340787 1.0566597 2.2876844
v 1.6916282 1.014396 2.3481538
v 1.6331162 1.0273705 2.3584352
v -0.22316462 1.0273705 2.2665682
v -0.21622594 1.0566597 2.196113
v 0.20517488 1.0566605 -2.0827842
v -2.0627785 1.0273705 1.9931277
v -2.048913 1.0566597 1.923727
v -1.2101272 1.0566605 -2.2931352
v -2.1173956 1.0143949 1.9719421
v -1.2799441 1.0273713 -2.304593
v -2.118926 1.0273705 1.9133805
v 1.7340788 0.9566597 2.2927575
v 1.6916282 1.014396 2.3481538
v 1.7047895 1.0273705 2.290221
v 1.7047639 1.0273713 -2.0086322
v 1.7340786 0.95666057 -2.0072436
v 1.6918395 1.0143957 -2.0670426
v 1.7048253 0.9566597 2.3620205
v 1.7340783 -4.5564443E-07 2.2927575
v 1.7340782 4.5564443E-07 -2.0072436
v 1.7048248 -4.7062994E-07 2.3620205
v 1.7048244 4.706299E-07 -2.079402
v 1.6342012 0.9566597 2.3878145
v 1.6342007 -4.7683716E-07 2.3878145
v 1.6331162 1.0273705 2.3584352
v -0.22603916 -4.7683716E-07 2.2957516
v 1.7048503 0.95666057 -2.0794263
v 1.6342005 4.7683716E-07 -2.1121864
v -0.22603874 0.9566597 2.2957516
v -0.22316462 1.0273705 2.2665682
v -2.0685635 -4.7683716E-07 2.0219033
v 1.6342008 0.95666057 -2.1121864
v 1.6341397 1.0273713 -2.082838
v 0.21211353 1.0273713 -2.1532393
v -2.068563 0.9566597 2.0219033
v -2.0627785 1.0273705 1.9931277
v -2.1173956 1.0143949 1.9719421
v 0.21498758 0.95666057 -2.1824226
v 0.21498716 4.7683716E-07 -2.1824226
v -1.1973757 1.0273715 -2.3627257
v -2.1328206 0.95665973 1.9828017
v -2.1327918 -4.7062954E-07 1.9827815
v -1.1907132 0.95666057 -2.3913467
v -1.1907136 4.7683716E-07 -2.3913467
v -1.26637 4.7062952E-07 -2.3730154
v -1.2562139 1.0143969 -2.3585918
v -2.1479673 0.9566597 1.9091237
v -2.118926 1.0273705 1.9133805
v -2.1479678 -4.5564306E-07 1.9091237
v -1.2663696 0.95666057 -2.3730154
v -1.3091362 4.55643E-07 -2.3079693
v -1.3091357 0.95666057 -2.3079693
v -1.2799441 1.0273713 -2.304593
vt 0.71975154 1.0000002
vt 0.71875006 1.0000001
vt 0.7191613 1.0000001
vt 0.71975285 1.0000001
vt 0.7343751 1.0000001
vt 0.7343751 1.0000001
vt 0.7489871 1.0000001
vt 0.7489986 1.0000001
vt 0.7500001 1.0000001
vt 0.7500001 1.0000001
vt 0.7500001 1.0000001
vt 0.7491837 1.0000001
vt 0.749645 1.0000001
vt 0.7491838 1.0000001
vt 0.73436356 1.0000001
vt 0.7343751 1.0000001
vt 0.7343751 1.0000001
vt 0.71955806 1.0000001
vt 0.71956646 1.0000001
vt 0.71975154 1.0000002
vt 0.7187501 1.0000001
vt 0.71875006 1.0000001
vt 0.7187501 1.0000001
vt 0 0
vt 0 0
vt 0 0
vt 0 0
vt 0 0
vt 0 0
vt 0 0
vt 0 0
vt 0 0
vt 0 0
vt 0 0
vt 0 0
vt 0 0
vt 0 0
vt 0 0
vt 0 0
vt 0 0
vt 0 0
vt 0 0
vt 0 0
vt 0 0
vt 0 0
vt 0 0
vt 0 0
vt 0 0
vt 0 0
vt 0 0
vt 0 0
vt 0 0
vt 0 0
vt 0 0
vt 0 0
vt 0 0
vt 0 0
vt 0 0
vt 0 0
vt 0 0
vt 0 0
vt 0 0
vt 0 0
vt 0 0
vt 0 0
vn -0.14794178 0.9664198 -0.21010983
vn -0.6536716 0.69309866 -0.3038545
vn -0.472581 0.57107574 -0.6712225
vn -0.06567236 0.69308275 -0.71786034
vn 0.06891019 0.7134443 -0.69731534
vn 0.018587278 0.98197144 -0.18811305
vn 0.20325978 0.69363517 -0.69105405
vn 0.18700005 0.96610415 -0.17797153
vn 0.5933908 0.5735376 -0.56474954
vn 0.7002611 0.69363064 -0.16885182
vn 0.69228286 0.7002915 0.17417297
vn 0.17228422 0.968275 0.18100157
vn 0.5594368 0.5843894 0.5878091
vn 0.13974492 0.70027584 0.70006084
vn -0.07008581 0.7014975 0.7092174
vn -0.019743506 0.97964525 0.19976334
vn 0.018587278 0.98197144 -0.18811305
vn -0.27545592 0.6999069 0.65897983
vn -0.20349771 0.96853507 0.14327754
vn -0.14794178 0.9664198 -0.21010983
vn -0.664866 0.58208805 0.4681097
vn -0.6536716 0.69309866 -0.3038545
vn -0.71326405 0.6999104 0.03714552
vn 0.9660916 0.18134592 0.1837955
vn 0.5594368 0.5843894 0.5878091
vn 0.69228286 0.7002915 0.17417297
vn 0.7002611 0.69363064 -0.16885182
vn 0.96820486 0.17860308 -0.17515786
vn 0.5933908 0.5735376 -0.56474954
vn 0.6783587 0.17831999 0.71276337
vn 0.98010343 -4.795753E-07 0.19848773
vn 0.9815337 -9.17175E-06 -0.19128926
vn 0.6894084 -2.8774076E-07 0.7243728
vn 0.7243711 -1.8738947E-05 -0.6894103
vn 0.13581438 0.18130827 0.9740029
vn 0.14979798 0 0.9887166
vn 0.13974492 0.70027584 0.70006084
vn -0.098338865 0 0.99515307
vn 0.7138769 0.16959648 -0.679424
vn 0.23957056 -8.841868E-06 -0.97087896
vn -0.09646619 0.19417538 0.9762122
vn -0.07008581 0.7014975 0.7092174
vn -0.3402746 -8.379465E-06 0.94032615
vn 0.22280091 0.17860666 -0.9583629
vn 0.20325978 0.69363517 -0.69105405
vn 0.06891019 0.7134443 -0.69731534
vn -0.32309675 0.18051404 0.9289904
vn -0.27545592 0.6999069 0.65897983
vn -0.664866 0.58208805 0.4681097
vn 0.09642563 0.19651572 -0.97574776
vn 0.09833852 0 -0.99515307
vn -0.06567236 0.69308275 -0.71786034
vn -0.8048592 0.17631043 0.56667125
vn -0.8176676 -1.8015951E-05 0.5756906
vn -0.030496497 0.17767866 -0.98361593
vn -0.04506941 0 -0.9989838
vn -0.575692 3.4506823E-07 -0.81766653
vn -0.472581 0.57107574 -0.6712225
vn -0.9835301 0.18051793 -0.00904071
vn -0.71326405 0.6999104 0.03714552
vn -0.9999945 -8.225092E-06 0.0033110958
vn -0.56757295 0.16734806 -0.80613625
vn -0.92529625 4.679451E-07 -0.37924525
vn -0.9157341 0.17771669 -0.36034417
vn -0.6536716 0.69309866 -0.3038545
g D a_0
f 3/3/3 2/2/2 1/1/1
f 4/4/4 3/3/3 1/1/1
f 5/5/5 4/4/4 1/1/1
f 6/6/6 5/5/5 1/1/1
f 7/7/7 5/5/5 6/6/6
f 8/8/8 7/7/7 6/6/6
f 9/9/9 7/7/7 8/8/8
f 10/10/10 9/9/9 8/8/8
f 11/11/11 10/10/10 8/8/8
f 12/12/12 11/11/11 8/8/8
f 13/13/13 11/11/11 12/12/12
f 14/14/14 13/13/13 12/12/12
f 14/14/14 12/12/12 15/15/15
f 16/16/16 12/12/12 8/8/8
f 12/12/12 16/16/16 15/15/15
f 17/17/17 16/16/16 8/8/8
f 15/15/15 16/16/16 18/18/18
f 19/19/19 16/16/16 17/17/17
f 16/16/16 19/19/19 18/18/18
f 20/20/20 19/19/19 17/17/17
f 21/21/21 18/18/18 19/19/19
f 20/20/20 22/22/22 19/19/19
f 23/23/23 21/21/21 19/19/19
f 22/22/22 23/23/23 19/19/19
f 26/26/26 25/25/25 24/24/24
f 26/26/26 24/24/24 27/27/27
f 24/24/24 28/28/28 27/27/27
f 29/29/29 27/27/27 28/28/28
f 25/25/25 30/30/30 24/24/24
f 28/28/28 24/24/24 31/31/31
f 31/31/31 24/24/24 30/30/30
f 32/32/32 28/28/28 31/31/31
f 33/33/33 31/31/31 30/30/30
f 28/28/28 32/32/32 34/34/34
f 30/30/30 25/25/25 35/35/35
f 33/33/33 30/30/30 35/35/35
f 36/36/36 33/33/33 35/35/35
f 25/25/25 37/37/37 35/35/35
f 36/36/36 35/35/35 38/38/38
f 39/39/39 28/28/28 34/34/34
f 39/39/39 29/29/29 28/28/28
f 39/39/39 34/34/34 40/40/40
f 35/35/35 37/37/37 41/41/41
f 35/35/35 41/41/41 38/38/38
f 37/37/37 42/42/42 41/41/41
f 38/38/38 41/41/41 43/43/43
f 29/29/29 39/39/39 44/44/44
f 44/44/44 39/39/39 40/40/40
f 45/45/45 29/29/29 44/44/44
f 45/45/45 44/44/44 46/46/46
f 41/41/41 42/42/42 47/47/47
f 41/41/41 47/47/47 43/43/43
f 42/42/42 48/48/48 47/47/47
f 48/48/48 49/49/49 47/47/47
f 50/50/50 44/44/44 40/40/40
f 44/44/44 50/50/50 46/46/46
f 51/51/51 50/50/50 40/40/40
f 46/46/46 50/50/50 52/52/52
f 47/47/47 53/53/53 43/43/43
f 49/49/49 53/53/53 47/47/47
f 53/53/53 54/54/54 43/43/43
f 55/55/55 50/50/50 51/51/51
f 50/50/50 55/55/55 52/52/52
f 56/56/56 55/55/55 51/51/51
f 56/56/56 57/57/57 55/55/55
f 58/58/58 52/52/52 55/55/55
f 53/53/53 49/49/49 59/59/59
f 53/53/53 59/59/59 54/54/54
f 49/49/49 60/60/60 59/59/59
f 59/59/59 61/61/61 54/54/54
f 57/57/57 62/62/62 55/55/55
f 62/62/62 58/58/58 55/55/55
f 57/57/57 63/63/63 62/62/62
f 64/64/64 59/59/59 60/60/60
f 61/61/61 59/59/59 64/64/64
f 63/63/63 61/61/61 64/64/64
f 63/63/63 64/64/64 62/62/62
f 58/58/58 62/62/62 64/64/64
f 65/65/65 64/64/64 60/60/60
f 65/65/65 58/58/58 64/64/64
