g E a
v 2.179237 0 2.3860497
v 2.1499834 0 2.4553127
v 2.1499834 0.95666015 2.4553127
v 2.179237 0.95666015 2.3860497
v 2.179237 0 -2.0272374
v 2.079359 0.95666015 2.4811068
v 2.079359 0 2.4811068
v 2.179237 0.95666015 -2.0272374
v 2.1499834 0 -2.0993958
v 2.1367865 1.0143964 2.4414458
v -0.23300886 0.95666015 2.3666687
v -0.23300886 0 2.3666687
v 2.1500087 0.9566603 -2.0994203
v 2.079359 0 -2.1321802
v 2.079359 0.95666015 -2.1321802
v 0.21912003 0 -2.2242432
v 2.1369977 1.0143954 -2.0870366
v 2.1499224 1.0273709 -2.0286262
v 2.1499476 1.0273709 2.3835135
v 2.0782743 1.0273709 2.4517272
v -2.5233538 0.95666015 2.0262616
v -2.5233538 0 2.0262616
v 2.079237 1.0566602 -2.0320623
v 2.079237 1.0566602 2.380977
v -0.23013479 1.0273709 2.3374853
v -0.22319612 1.0566602 2.2670302
v 2.079298 1.0273709 -2.102832
v 0.20930728 1.0566602 -2.1246047
v -2.5175693 1.0273709 1.9974861
v -2.5876114 0.9566603 1.98716
v -2.587582 0 1.9871398
v 0.21624595 1.0273709 -2.1950598
v -2.5037036 1.0566602 1.9280853
v -2.5721865 1.0143954 1.9763004
v -2.6027582 0.95666015 1.9134818
v -2.6027582 0 1.9134818
v -2.5737166 1.0273709 1.9177389
v -1.7418268 0.95666015 -2.414714
v -1.7418268 0 -2.414714
v -1.6428182 1.0566602 -2.39988
v -1.7126352 1.0273709 -2.4113371
v -1.6990607 0.95666015 -2.4797602
v -1.6990607 0 -2.4797602
v -1.6889051 1.0143964 -2.4653366
v -1.6234041 0.95666015 -2.4980915
v -1.6234041 0 -2.4980915
v -1.6300666 1.027371 -2.4694705
v 0.21912003 0.95666015 -2.2242432
vt 0 0
vt 0 0
vt 0 0
vt 0 0
vt 0 0
vt 0 0
vt 0 0
vt 0 0
vt 0 0
vt 0 0
vt 0 0
vt 0 0
vt 0 0
vt 0 0
vt 0 0
vt 0 0
vt 0 0
vt 0 0
vt 0 0
vt 0 0
vt 0 0
vt 0 0
vt 0 0
vt 0 0
vt 0 0
vt 0 0
vt 0 0
vt 0 0
vt 0 0
vt 0 0
vt 0 0
vt 0 0
vt 0 0
vt 0 0
vt 0 0
vt 0 0
vt 0 0
vt 0 0
vt 0 0
vt 0 0
vt 0 0
vt 0 0
vt 0 0
vt 0 0
vt 0 0
vt 0 0
vt 0 0
vt 0 0
vn 0.9801036 0 0.19848616
vn 0.68940926 0 0.724372
vn 0.6783587 0.17832017 0.71276325
vn 0.96609193 0.18134505 0.18379423
vn 0.98153406 -8.671043E-06 -0.19128749
vn 0.135814 0.18131074 0.9740026
vn 0.1497976 0 0.9887166
vn 0.9682053 0.17860198 -0.1751569
vn 0.7243714 -1.8503008E-05 -0.68941
vn 0.5594374 0.58438945 0.5878084
vn -0.09646582 0.19417766 0.9762117
vn -0.09833888 0 0.99515307
vn 0.7138767 0.1695955 -0.67942435
vn 0.23956943 -8.865035E-06 -0.9708792
vn 0.22279915 0.17860547 -0.95836353
vn 0.098338865 0 -0.99515307
vn 0.5933904 0.5735367 -0.5647507
vn 0.70026165 0.69363004 -0.1688522
vn 0.69228256 0.7002918 0.17417297
vn 0.13974403 0.7002775 0.7000593
vn -0.32309622 0.18051504 0.9289904
vn -0.3402735 -8.66304E-06 0.94032645
vn 0.186999 0.9661044 -0.17797095
vn 0.17228322 0.96827525 0.18100184
vn -0.0700852 0.7014988 0.70921624
vn -0.019743485 0.97964513 0.1997641
vn 0.20325872 0.6936344 -0.6910552
vn 0.018587124 0.98197156 -0.18811262
vn -0.27545592 0.6999072 0.65897954
vn -0.80485946 0.17631125 0.56667066
vn -0.8176677 -1.860078E-05 0.5756904
vn 0.068909764 0.7134443 -0.69731545
vn -0.20349793 0.96853507 0.14327793
vn -0.6648659 0.5820886 0.46810907
vn -0.9835301 0.1805181 -0.009041455
vn -0.9999945 -8.738256E-06 0.0033094874
vn -0.71326387 0.6999105 0.03714571
vn -0.91573423 0.1777167 -0.36034396
vn -0.92529625 0 -0.37924525
vn -0.1479423 0.9664196 -0.21010995
vn -0.6536723 0.6930989 -0.30385253
vn -0.5675738 0.167347 -0.8061358
vn -0.57569194 0 -0.81766665
vn -0.4725841 0.5710744 -0.6712215
vn -0.03049666 0.17767742 -0.9836162
vn -0.04506914 0 -0.9989838
vn -0.0656735 0.69308156 -0.71786124
vn 0.096425496 0.19651474 -0.975748
g E a_0
f 3/3/3 2/2/2 1/1/1
f 4/4/4 3/3/3 1/1/1
f 1/1/1 5/5/5 4/4/4
f 3/3/3 6/6/6 2/2/2
f 6/6/6 7/7/7 2/2/2
f 5/5/5 8/8/8 4/4/4
f 5/5/5 9/9/9 8/8/8
f 3/3/3 10/10/10 6/6/6
f 10/10/10 3/3/3 4/4/4
f 7/7/7 6/6/6 11/11/11
f 12/12/12 7/7/7 11/11/11
f 9/9/9 13/13/13 8/8/8
f 9/9/9 14/14/14 13/13/13
f 14/14/14 15/15/15 13/13/13
f 14/14/14 16/16/16 15/15/15
f 13/13/13 17/17/17 8/8/8
f 17/17/17 13/13/13 15/15/15
f 4/4/4 8/8/8 18/18/18
f 17/17/17 18/18/18 8/8/8
f 19/19/19 4/4/4 18/18/18
f 19/19/19 10/10/10 4/4/4
f 10/10/10 20/20/20 6/6/6
f 6/6/6 20/20/20 11/11/11
f 12/12/12 11/11/11 21/21/21
f 22/22/22 12/12/12 21/21/21
f 18/18/18 17/17/17 23/23/23
f 19/19/19 18/18/18 23/23/23
f 10/10/10 19/19/19 24/24/24
f 20/20/20 10/10/10 24/24/24
f 24/24/24 19/19/19 23/23/23
f 20/20/20 25/25/25 11/11/11
f 20/20/20 24/24/24 25/25/25
f 11/11/11 25/25/25 21/21/21
f 24/24/24 26/26/26 25/25/25
f 26/26/26 24/24/24 23/23/23
f 17/17/17 27/27/27 23/23/23
f 27/27/27 17/17/17 15/15/15
f 23/23/23 27/27/27 28/28/28
f 28/28/28 26/26/26 23/23/23
f 25/25/25 26/26/26 29/29/29
f 25/25/25 29/29/29 21/21/21
f 22/22/22 21/21/21 30/30/30
f 31/31/31 22/22/22 30/30/30
f 27/27/27 15/15/15 32/32/32
f 27/27/27 32/32/32 28/28/28
f 33/33/33 26/26/26 28/28/28
f 26/26/26 33/33/33 29/29/29
f 29/29/29 34/34/34 21/21/21
f 34/34/34 30/30/30 21/21/21
f 34/34/34 29/29/29 33/33/33
f 31/31/31 30/30/30 35/35/35
f 30/30/30 34/34/34 35/35/35
f 36/36/36 31/31/31 35/35/35
f 34/34/34 37/37/37 35/35/35
f 37/37/37 34/34/34 33/33/33
f 36/36/36 35/35/35 38/38/38
f 38/38/38 35/35/35 37/37/37
f 39/39/39 36/36/36 38/38/38
f 40/40/40 33/33/33 28/28/28
f 28/28/28 32/32/32 40/40/40
f 41/41/41 37/37/37 33/33/33
f 41/41/41 38/38/38 37/37/37
f 40/40/40 41/41/41 33/33/33
f 38/38/38 42/42/42 39/39/39
f 42/42/42 43/43/43 39/39/39
f 41/41/41 44/44/44 38/38/38
f 44/44/44 41/41/41 40/40/40
f 44/44/44 42/42/42 38/38/38
f 42/42/42 45/45/45 43/43/43
f 42/42/42 44/44/44 45/45/45
f 45/45/45 46/46/46 43/43/43
f 47/47/47 44/44/44 40/40/40
f 32/32/32 47/47/47 40/40/40
f 44/44/44 47/47/47 45/45/45
f 46/46/46 45/45/45 48/48/48
f 48/48/48 45/45/45 47/47/47
f 32/32/32 48/48/48 47/47/47
f 16/16/16 46/46/46 48/48/48
f 15/15/15 48/48/48 32/32/32
f 16/16/16 48/48/48 15/15/15
