g D b
v -0.7397071 1.0566605 -2.4842403
v -0.80595845 1.0273713 -2.5090709
v -0.77215314 1.0143969 -2.5574043
v -0.7136365 1.0273713 -2.5500154
v 0.6280426 1.0273713 -2.0705056
v 0.60749114 1.0566605 -2.0027585
v 2.0094218 1.0273713 -1.7248781
v 1.9955573 1.0566605 -1.6554829
v 2.0629392 1.0143958 -1.698164
v 2.0642233 1.0273713 -1.6383642
v 1.2256353 1.0273705 2.5776272
v 1.1567714 1.0566597 2.561379
v 1.2014278 1.014396 2.6318762
v 1.1420367 1.0273705 2.6305819
v -0.6611988 1.0273705 2.1794372
v -0.6406473 1.0566597 2.11169
v 0.60749114 1.0566605 -2.0027585
v -2.412291 1.0273703 1.553577
v -2.3851497 1.0566597 1.488212
v -0.7397071 1.0566605 -2.4842403
v -2.4617395 1.0143948 1.5221795
v -0.80595845 1.0273713 -2.5090709
v -2.4518173 1.0273703 1.4644513
v -2.479479 0.9566597 1.4546305
v -2.478992 0.9566597 1.5298312
v -2.4789593 -4.7063E-07 1.5298162
v -2.47948 -4.556444E-07 1.4546305
v -0.833942 4.556444E-07 -2.5180507
v -0.83394164 0.95666057 -2.5180507
v -0.77215314 1.0143969 -2.5574043
v -0.77930105 0.9566605 -2.573522
v -0.7793015 4.7063E-07 -2.573522
v -2.478992 0.9566597 1.5298312
v -2.4235816 -4.7683716E-07 1.5806733
v -2.4789593 -4.7063E-07 1.5298162
v -2.4235806 0.9566597 1.5806733
v -2.4617395 1.0143948 1.5221795
v -2.412291 1.0273703 1.553577
v -0.6611988 1.0273705 2.1794372
v -0.66971153 0.9566597 2.207499
v -0.6697119 -4.7683716E-07 2.207499
v 1.1420367 1.0273705 2.6305819
v 1.1373551 0.9566597 2.659602
v 1.1373546 -4.7683716E-07 2.659602
v 1.211665 -4.7062954E-07 2.6480377
v 1.2014278 1.014396 2.6318762
v 1.2116655 0.9566597 2.6480377
v 1.2538736 -4.55643E-07 2.585794
v 1.2538742 0.9566597 2.585794
v 1.2256353 1.0273705 2.5776272
v 2.0642233 1.0273713 -1.6383642
v 2.092706 0.95666057 -1.6312988
v 2.0927055 4.5564306E-07 -1.6312988
v 2.0780869 4.7062952E-07 -1.7077594
v 2.0629392 1.0143958 -1.698164
v 2.0781164 0.95666075 -1.7077774
v 2.0152047 4.7683716E-07 -1.7536477
v 2.0152051 0.95666057 -1.7536479
v 2.0094218 1.0273713 -1.7248781
v 0.6280426 1.0273713 -2.0705056
v 0.63655525 0.95666057 -2.0985675
v 0.63655484 4.7683716E-07 -2.0985675
v -0.7136365 1.0273713 -2.5500154
v -0.7015066 0.95666057 -2.576784
v -0.7015071 4.7683716E-07 -2.576784
v -0.77215314 1.0143969 -2.5574043
v -0.7793015 4.7063E-07 -2.573522
v -0.77930105 0.9566605 -2.573522
vt 0.68850154 1
vt 0.68750006 1.0000001
vt 0.6879109 1.0000001
vt 0.6885026 1.0000001
vt 0.70312506 1.0000001
vt 0.70312506 1.0000001
vt 0.717737 1.0000001
vt 0.7177487 1.0000001
vt 0.7187501 1.0000001
vt 0.7187501 1.0000001
vt 0.7187501 1.0000001
vt 0.71793383 1.0000001
vt 0.7183953 1.0000001
vt 0.71793413 1.0000001
vt 0.7031137 1.0000001
vt 0.70312506 1.0000001
vt 0.70312506 1.0000001
vt 0.68830824 1.0000001
vt 0.68831646 1.0000001
vt 0.68850154 1
vt 0.68750006 1.0000001
vt 0.68750006 1.0000001
vt 0.68750006 1.0000001
vt 0.6875001 1.0000001
vt 0.68750006 1.0000001
vt 0.68750006 1.0000001
vt 0.68750006 1.0000001
vt 0.6875 1.0000001
vt 0.68750006 1.0000001
vt 0.68750006 1.0000001
vt 0.6875001 1.0000001
vt 0.68750006 1.0000001
vt 0 0
vt 0 0
vt 0 0
vt 0 0
vt 0 0
vt 0 0
vt 0 0
vt 0 0
vt 0 0
vt 0 0
vt 0 0
vt 0 0
vt 0 0
vt 0 0
vt 0 0
vt 0 0
vt 0 0
vt 0 0
vt 0 0
vt 0 0
vt 0 0
vt 0 0
vt 0 0
vt 0 0
vt 0 0
vt 0 0
vt 0 0
vt 0 0
vt 0 0
vt 0 0
vt 0 0
vt 0 0
vt 0 0
vt 0 0
vt 0 0
vt 0 0
vn -0.104204014 0.96641 -0.23493244
vn -0.5818911 0.69305825 -0.42552656
vn -0.332821 0.5710005 -0.75045884
vn 0.0752164 0.69304353 -0.71696115
vn 0.20319216 0.71344286 -0.6706058
vn 0.05481528 0.9819717 -0.1809059
vn 0.33380568 0.6936591 -0.63828737
vn 0.21803689 0.96611816 -0.13811445
vn 0.69200486 0.5735723 -0.43834257
vn 0.71971494 0.6936615 -0.029053459
vn 0.64506173 0.70023817 0.3058788
vn 0.13375664 0.9682607 0.21114065
vn 0.43427062 0.5842883 0.6855773
vn 0.0009128695 0.70021963 0.71392703
vn -0.2066591 0.7014994 0.6820488
vn -0.058208484 0.979645 0.19211288
vn 0.05481528 0.9819717 -0.1809059
vn -0.39834666 0.69996595 0.5927627
vn -0.22744387 0.96855307 0.100867145
vn -0.104204014 0.96641 -0.23493244
vn -0.7432553 0.5821673 0.32962507
vn -0.5818911 0.69305825 -0.42552656
vn -0.7067623 0.69996226 -0.10266356
vn -0.96287405 0.18053782 -0.20069806
vn -0.8998048 0.17637292 0.39905408
vn -0.91413575 -1.8368295E-05 0.4054083
vn -0.9814332 -8.1413245E-06 -0.19180432
vn -0.8335592 3.7547912E-07 -0.5524301
vn -0.8278769 0.17769815 -0.5320179
vn -0.332821 0.5710005 -0.75045884
vn -0.39969456 0.16728282 -0.9012551
vn -0.40540734 1.6155937E-07 -0.9141362
vn -0.8998048 0.17637292 0.39905408
vn -0.51666063 -8.49597E-06 0.85619026
vn -0.91413575 -1.8368295E-05 0.4054083
vn -0.49760962 0.18054084 0.84840417
vn -0.7432553 0.5821673 0.32962507
vn -0.39834666 0.69996595 0.5927627
vn -0.2066591 0.7014994 0.6820488
vn -0.2844588 0.19417909 0.93881726
vn -0.28997537 2.009538E-07 0.9570341
vn 0.0009128695 0.70021963 0.71392703
vn -0.05623973 0.18127869 0.9818224
vn -0.045368638 0 0.99897027
vn 0.5351163 -2.647603E-07 0.84477836
vn 0.43427062 0.5842883 0.6855773
vn 0.5265483 0.17823906 0.8312506
vn 0.9225649 -4.840231E-07 0.38584182
vn 0.9116995 0.18131645 0.3686846
vn 0.64506173 0.70023817 0.3058788
vn 0.71971494 0.6936615 -0.029053459
vn 0.9837728 0.17860821 0.017038314
vn 0.9999927 -8.995946E-06 0.0038210275
vn 0.8447785 -1.8332117E-05 -0.5351162
vn 0.69200486 0.5735723 -0.43834257
vn 0.83253807 0.16962275 -0.52735984
vn 0.42384276 -8.7135295E-06 -0.9057358
vn 0.40496504 0.17860594 -0.896718
vn 0.33380568 0.6936591 -0.63828737
vn 0.20319216 0.71344286 -0.6706058
vn 0.28432184 0.19651268 -0.938373
vn 0.2899751 -1.7558877E-07 -0.9570341
vn 0.0752164 0.69304353 -0.71696115
vn 0.16141915 0.17765859 -0.97076327
vn 0.15010078 0 -0.9886707
vn -0.332821 0.5710005 -0.75045884
vn -0.40540734 1.6155937E-07 -0.9141362
vn -0.39969456 0.16728282 -0.9012551
g D b_0
f 3/3/3 2/2/2 1/1/1
f 4/4/4 3/3/3 1/1/1
f 5/5/5 4/4/4 1/1/1
f 6/6/6 5/5/5 1/1/1
f 7/7/7 5/5/5 6/6/6
f 8/8/8 7/7/7 6/6/6
f 9/9/9 7/7/7 8/8/8
f 10/10/10 9/9/9 8/8/8
f 10/10/10 8/8/8 11/11/11
f 8/8/8 12/12/12 11/11/11
f 13/13/13 11/11/11 12/12/12
f 14/14/14 13/13/13 12/12/12
f 14/14/14 12/12/12 15/15/15
f 16/16/16 12/12/12 8/8/8
f 12/12/12 16/16/16 15/15/15
f 17/17/17 16/16/16 8/8/8
f 15/15/15 16/16/16 18/18/18
f 19/19/19 16/16/16 17/17/17
f 16/16/16 19/19/19 18/18/18
f 20/20/20 19/19/19 17/17/17
f 21/21/21 18/18/18 19/19/19
f 19/19/19 20/20/20 22/22/22
f 23/23/23 21/21/21 19/19/19
f 23/23/23 19/19/19 22/22/22
f 21/21/21 23/23/23 24/24/24
f 25/25/25 21/21/21 24/24/24
f 26/26/26 25/25/25 24/24/24
f 27/27/27 26/26/26 24/24/24
f 27/27/27 24/24/24 28/28/28
f 23/23/23 22/22/22 29/29/29
f 24/24/24 23/23/23 29/29/29
f 24/24/24 29/29/29 28/28/28
f 22/22/22 30/30/30 29/29/29
f 30/30/30 31/31/31 29/29/29
f 29/29/29 31/31/31 28/28/28
f 31/31/31 32/32/32 28/28/28
f 35/35/35 34/34/34 33/33/33
f 34/34/34 36/36/36 33/33/33
f 37/37/37 33/33/33 36/36/36
f 38/38/38 37/37/37 36/36/36
f 39/39/39 38/38/38 36/36/36
f 40/40/40 36/36/36 34/34/34
f 40/40/40 39/39/39 36/36/36
f 41/41/41 40/40/40 34/34/34
f 42/42/42 39/39/39 40/40/40
f 43/43/43 40/40/40 41/41/41
f 43/43/43 42/42/42 40/40/40
f 44/44/44 43/43/43 41/41/41
f 43/43/43 44/44/44 45/45/45
f 46/46/46 42/42/42 43/43/43
f 47/47/47 43/43/43 45/45/45
f 47/47/47 46/46/46 43/43/43
f 47/47/47 45/45/45 48/48/48
f 46/46/46 47/47/47 49/49/49
f 49/49/49 47/47/47 48/48/48
f 50/50/50 46/46/46 49/49/49
f 51/51/51 50/50/50 49/49/49
f 49/49/49 48/48/48 52/52/52
f 52/52/52 51/51/51 49/49/49
f 48/48/48 53/53/53 52/52/52
f 53/53/53 54/54/54 52/52/52
f 55/55/55 51/51/51 52/52/52
f 54/54/54 56/56/56 52/52/52
f 56/56/56 55/55/55 52/52/52
f 54/54/54 57/57/57 56/56/56
f 55/55/55 56/56/56 58/58/58
f 57/57/57 58/58/58 56/56/56
f 59/59/59 55/55/55 58/58/58
f 59/59/59 58/58/58 60/60/60
f 61/61/61 58/58/58 57/57/57
f 58/58/58 61/61/61 60/60/60
f 62/62/62 61/61/61 57/57/57
f 60/60/60 61/61/61 63/63/63
f 64/64/64 61/61/61 62/62/62
f 61/61/61 64/64/64 63/63/63
f 65/65/65 64/64/64 62/62/62
f 66/66/66 63/63/63 64/64/64
f 64/64/64 65/65/65 67/67/67
f 68/68/68 66/66/66 64/64/64
f 68/68/68 64/64/64 67/67/67
